{
 "cells": [
  {
   "cell_type": "code",
   "execution_count": 2,
   "metadata": {},
   "outputs": [
    {
     "name": "stdout",
     "output_type": "stream",
     "text": [
      "root dir: /root/repositories/motion-wav2lip-codeformer\n",
      "CodeFormer dir: /root/repositories/motion-wav2lip-codeformer/CodeFormer\n",
      "Wav2Lip dir: /root/repositories/motion-wav2lip-codeformer/Wav2Lip\n",
      "images dir: /root/repositories/motion-wav2lip-codeformer/images\n",
      "input dir: /root/repositories/motion-wav2lip-codeformer/input\n",
      "output dir: /root/repositories/motion-wav2lip-codeformer/output\n",
      "CodeFormer->results dir: /root/repositories/motion-wav2lip-codeformer/CodeFormer/results\n",
      "Wav2Lip->result_voice.mp4 path: /root/repositories/motion-wav2lip-codeformer/Wav2Lip/results/result_voice.mp4\n",
      "output->audio path: /root/repositories/motion-wav2lip-codeformer/output/batch_0000.avi\n",
      "output->batch_0000.avi path: /root/repositories/motion-wav2lip-codeformer/output/batch_0000.avi\n",
      "output->final.mp4 path: /root/repositories/motion-wav2lip-codeformer/output/final.mp4\n"
     ]
    }
   ],
   "source": [
    "import os\n",
    "from pathlib import Path\n",
    "\n",
    "cwd = os.getcwd()\n",
    "root_dir = Path(cwd)\n",
    "codeformer_dir = root_dir / \"CodeFormer\"\n",
    "wav2lip_dir = root_dir / \"Wav2Lip\"\n",
    "images_dir = root_dir / \"images\"\n",
    "output_dir = root_dir / \"output\"\n",
    "input_dir = root_dir / \"input\"\n",
    "\n",
    "codeformer_results_dir = codeformer_dir / \"results\"\n",
    "wav2lip_result_voice_path = wav2lip_dir / \"results\" / \"result_voice.mp4\"\n",
    "\n",
    "input_audio_path = input_dir / \"audio.wav\"\n",
    "\n",
    "output_batch_avi_path = output_dir / \"batch_0000.avi\"\n",
    "output_final_mp4_path = output_dir / \"final.mp4\"\n",
    "\n",
    "CODEFORMER_FIDELITY = 0.6\n",
    "\n",
    "print(f\"root dir: {root_dir}\")\n",
    "print(f\"CodeFormer dir: {codeformer_dir}\")\n",
    "print(f\"Wav2Lip dir: {wav2lip_dir}\")\n",
    "print(f\"images dir: {images_dir}\")\n",
    "print(f\"input dir: {input_dir}\")\n",
    "print(f\"output dir: {output_dir}\")\n",
    "print(f\"CodeFormer->results dir: {codeformer_results_dir}\")\n",
    "print(f\"Wav2Lip->result_voice.mp4 path: {wav2lip_result_voice_path}\")\n",
    "print(f\"input->audio path: {input_audio_path}\")\n",
    "print(f\"output->batch_0000.avi path: {output_batch_avi_path}\")\n",
    "print(f\"output->final.mp4 path: {output_final_mp4_path}\")\n"
   ]
  },
  {
   "cell_type": "code",
   "execution_count": 2,
   "metadata": {},
   "outputs": [],
   "source": [
    "%rm -rf $images_dir\n",
    "%mkdir $images_dir\n",
    "\n",
    "%rm -rf $codeformer_results_dir\n",
    "%mkdir $codeformer_results_dir"
   ]
  },
  {
   "cell_type": "code",
   "execution_count": 3,
   "metadata": {},
   "outputs": [
    {
     "name": "stdout",
     "output_type": "stream",
     "text": [
      "/root/repositories/motion-wav2lip-codeformer/Wav2Lip\n",
      "Using cuda for inference.\n",
      "Reading video frames...\n",
      "Number of frames available for inference: 141\n",
      "/root/repositories/motion-wav2lip-codeformer/Wav2Lip/audio.py:100: FutureWarning: Pass sr=16000, n_fft=800 as keyword args. From version 0.10 passing these as positional arguments will result in an error\n",
      "  return librosa.filters.mel(hp.sample_rate, hp.n_fft, n_mels=hp.num_mels,\n",
      "(80, 539)\n",
      "Length of mel chunks: 198\n",
      "  0%|                                                     | 0/2 [00:00<?, ?it/s]\n",
      "  0%|                                                     | 0/9 [00:00<?, ?it/s]\u001b[A\n",
      " 11%|█████                                        | 1/9 [00:06<00:49,  6.20s/it]\u001b[A\n",
      " 22%|██████████                                   | 2/9 [00:06<00:18,  2.65s/it]\u001b[A\n",
      " 33%|███████████████                              | 3/9 [00:06<00:08,  1.49s/it]\u001b[A\n",
      " 44%|████████████████████                         | 4/9 [00:06<00:04,  1.06it/s]\u001b[A\n",
      " 56%|█████████████████████████                    | 5/9 [00:06<00:02,  1.56it/s]\u001b[A\n",
      " 67%|██████████████████████████████               | 6/9 [00:06<00:01,  2.16it/s]\u001b[A\n",
      " 78%|███████████████████████████████████          | 7/9 [00:06<00:00,  2.87it/s]\u001b[A\n",
      " 89%|████████████████████████████████████████     | 8/9 [00:07<00:00,  3.65it/s]\u001b[A\n",
      "100%|█████████████████████████████████████████████| 9/9 [00:08<00:00,  1.12it/s]\u001b[A\n",
      "Load checkpoint from: checkpoints/wav2lip_gan.pth\n",
      "Model loaded\n",
      "100%|█████████████████████████████████████████████| 2/2 [00:14<00:00,  7.25s/it]\n",
      "ffmpeg version 4.4.2-0ubuntu0.22.04.1 Copyright (c) 2000-2021 the FFmpeg developers\n",
      "  built with gcc 11 (Ubuntu 11.2.0-19ubuntu1)\n",
      "  configuration: --prefix=/usr --extra-version=0ubuntu0.22.04.1 --toolchain=hardened --libdir=/usr/lib/x86_64-linux-gnu --incdir=/usr/include/x86_64-linux-gnu --arch=amd64 --enable-gpl --disable-stripping --enable-gnutls --enable-ladspa --enable-libaom --enable-libass --enable-libbluray --enable-libbs2b --enable-libcaca --enable-libcdio --enable-libcodec2 --enable-libdav1d --enable-libflite --enable-libfontconfig --enable-libfreetype --enable-libfribidi --enable-libgme --enable-libgsm --enable-libjack --enable-libmp3lame --enable-libmysofa --enable-libopenjpeg --enable-libopenmpt --enable-libopus --enable-libpulse --enable-librabbitmq --enable-librubberband --enable-libshine --enable-libsnappy --enable-libsoxr --enable-libspeex --enable-libsrt --enable-libssh --enable-libtheora --enable-libtwolame --enable-libvidstab --enable-libvorbis --enable-libvpx --enable-libwebp --enable-libx265 --enable-libxml2 --enable-libxvid --enable-libzimg --enable-libzmq --enable-libzvbi --enable-lv2 --enable-omx --enable-openal --enable-opencl --enable-opengl --enable-sdl2 --enable-pocketsphinx --enable-librsvg --enable-libmfx --enable-libdc1394 --enable-libdrm --enable-libiec61883 --enable-chromaprint --enable-frei0r --enable-libx264 --enable-shared\n",
      "  libavutil      56. 70.100 / 56. 70.100\n",
      "  libavcodec     58.134.100 / 58.134.100\n",
      "  libavformat    58. 76.100 / 58. 76.100\n",
      "  libavdevice    58. 13.100 / 58. 13.100\n",
      "  libavfilter     7.110.100 /  7.110.100\n",
      "  libswscale      5.  9.100 /  5.  9.100\n",
      "  libswresample   3.  9.100 /  3.  9.100\n",
      "  libpostproc    55.  9.100 / 55.  9.100\n",
      "\u001b[0;33mGuessed Channel Layout for Input Stream #0.0 : mono\n",
      "\u001b[0mInput #0, wav, from '../input/generated.wav':\n",
      "  Duration: 00:00:06.73, bitrate: 768 kb/s\n",
      "  Stream #0:0: Audio: pcm_s16le ([1][0][0][0] / 0x0001), 48000 Hz, mono, s16, 768 kb/s\n",
      "Input #1, avi, from 'temp/result.avi':\n",
      "  Metadata:\n",
      "    software        : Lavf59.27.100\n",
      "  Duration: 00:00:06.62, start: 0.000000, bitrate: 241 kb/s\n",
      "  Stream #1:0: Video: mpeg4 (Simple Profile) (DIVX / 0x58564944), yuv420p, 256x256 [SAR 1:1 DAR 1:1], 230 kb/s, 29.93 fps, 29.92 tbr, 29.93 tbn, 2993 tbc\n",
      "Stream mapping:\n",
      "  Stream #1:0 -> #0:0 (mpeg4 (native) -> h264 (libx264))\n",
      "  Stream #0:0 -> #0:1 (pcm_s16le (native) -> aac (native))\n",
      "Press [q] to stop, [?] for help\n",
      "\u001b[1;36m[libx264 @ 0x56500d9cb880] \u001b[0m\u001b[0;33m-qscale is ignored, -crf is recommended.\n",
      "\u001b[0m\u001b[1;36m[libx264 @ 0x56500d9cb880] \u001b[0musing SAR=1/1\n",
      "\u001b[1;36m[libx264 @ 0x56500d9cb880] \u001b[0musing cpu capabilities: MMX2 SSE2Fast SSSE3 SSE4.2 AVX FMA3 BMI2 AVX2\n",
      "\u001b[1;36m[libx264 @ 0x56500d9cb880] \u001b[0mprofile High, level 1.3, 4:2:0, 8-bit\n",
      "\u001b[1;36m[libx264 @ 0x56500d9cb880] \u001b[0m264 - core 163 r3060 5db6aa6 - H.264/MPEG-4 AVC codec - Copyleft 2003-2021 - http://www.videolan.org/x264.html - options: cabac=1 ref=3 deblock=1:0:0 analyse=0x3:0x113 me=hex subme=7 psy=1 psy_rd=1.00:0.00 mixed_ref=1 me_range=16 chroma_me=1 trellis=1 8x8dct=1 cqm=0 deadzone=21,11 fast_pskip=1 chroma_qp_offset=-2 threads=8 lookahead_threads=1 sliced_threads=0 nr=0 decimate=1 interlaced=0 bluray_compat=0 constrained_intra=0 bframes=3 b_pyramid=2 b_adapt=1 b_bias=0 direct=1 weightb=1 open_gop=0 weightp=2 keyint=250 keyint_min=25 scenecut=40 intra_refresh=0 rc_lookahead=40 rc=crf mbtree=1 crf=23.0 qcomp=0.60 qpmin=0 qpmax=69 qpstep=4 ip_ratio=1.40 aq=1:1.00\n",
      "Output #0, mp4, to 'results/result_voice.mp4':\n",
      "  Metadata:\n",
      "    encoder         : Lavf58.76.100\n",
      "  Stream #0:0: Video: h264 (avc1 / 0x31637661), yuv420p(progressive), 256x256 [SAR 1:1 DAR 1:1], q=2-31, 29.92 fps, 11488 tbn\n",
      "    Metadata:\n",
      "      encoder         : Lavc58.134.100 libx264\n",
      "    Side data:\n",
      "      cpb: bitrate max/min/avg: 0/0/0 buffer size: 0 vbv_delay: N/A\n",
      "  Stream #0:1: Audio: aac (LC) (mp4a / 0x6134706D), 48000 Hz, mono, fltp, 69 kb/s\n",
      "    Metadata:\n",
      "      encoder         : Lavc58.134.100 aac\n",
      "frame=  198 fps=0.0 q=-1.0 Lsize=     152kB time=00:00:06.72 bitrate= 184.9kbits/s speed=35.3x    \n",
      "video:92kB audio:52kB subtitle:0kB other streams:0kB global headers:0kB muxing overhead: 5.376760%\n",
      "\u001b[1;36m[libx264 @ 0x56500d9cb880] \u001b[0mframe I:1     Avg QP:22.54  size:  2685\n",
      "\u001b[1;36m[libx264 @ 0x56500d9cb880] \u001b[0mframe P:141   Avg QP:22.88  size:   580\n",
      "\u001b[1;36m[libx264 @ 0x56500d9cb880] \u001b[0mframe B:56    Avg QP:21.79  size:   162\n",
      "\u001b[1;36m[libx264 @ 0x56500d9cb880] \u001b[0mconsecutive B-frames: 54.0% 19.2% 16.7% 10.1%\n",
      "\u001b[1;36m[libx264 @ 0x56500d9cb880] \u001b[0mmb I  I16..4: 14.5% 84.8%  0.8%\n",
      "\u001b[1;36m[libx264 @ 0x56500d9cb880] \u001b[0mmb P  I16..4:  0.6%  2.0%  0.0%  P16..4: 39.3% 10.5%  3.9%  0.0%  0.0%    skip:43.7%\n",
      "\u001b[1;36m[libx264 @ 0x56500d9cb880] \u001b[0mmb B  I16..4:  0.5%  1.3%  0.0%  B16..8: 29.1%  1.0%  0.1%  direct: 0.2%  skip:67.9%  L0:40.6% L1:56.2% BI: 3.2%\n",
      "\u001b[1;36m[libx264 @ 0x56500d9cb880] \u001b[0m8x8 transform intra:76.7% inter:91.6%\n",
      "\u001b[1;36m[libx264 @ 0x56500d9cb880] \u001b[0mcoded y,uvDC,uvAC intra: 40.5% 31.4% 3.2% inter: 9.1% 9.0% 0.0%\n",
      "\u001b[1;36m[libx264 @ 0x56500d9cb880] \u001b[0mi16 v,h,dc,p: 49%  8% 27% 16%\n",
      "\u001b[1;36m[libx264 @ 0x56500d9cb880] \u001b[0mi8 v,h,dc,ddl,ddr,vr,hd,vl,hu: 36% 13% 40%  2%  1%  2%  2%  2%  2%\n",
      "\u001b[1;36m[libx264 @ 0x56500d9cb880] \u001b[0mi4 v,h,dc,ddl,ddr,vr,hd,vl,hu: 44% 23% 17%  1%  3%  4%  2%  4%  2%\n",
      "\u001b[1;36m[libx264 @ 0x56500d9cb880] \u001b[0mi8c dc,h,v,p: 64%  9% 24%  3%\n",
      "\u001b[1;36m[libx264 @ 0x56500d9cb880] \u001b[0mWeighted P-Frames: Y:0.0% UV:0.0%\n",
      "\u001b[1;36m[libx264 @ 0x56500d9cb880] \u001b[0mref P L0: 69.7% 14.1% 11.9%  4.3%\n",
      "\u001b[1;36m[libx264 @ 0x56500d9cb880] \u001b[0mref B L0: 87.1%  9.4%  3.5%\n",
      "\u001b[1;36m[libx264 @ 0x56500d9cb880] \u001b[0mref B L1: 98.9%  1.1%\n",
      "\u001b[1;36m[libx264 @ 0x56500d9cb880] \u001b[0mkb/s:113.12\n",
      "\u001b[1;36m[aac @ 0x56500d9c7080] \u001b[0mQavg: 7685.399\n"
     ]
    }
   ],
   "source": [
    "%cd $wav2lip_dir\n",
    "!python inference.py --checkpoint_path checkpoints/wav2lip_gan.pth --face '../input/driving.mp4' --audio '../input/generated.wav'"
   ]
  },
  {
   "cell_type": "code",
   "execution_count": 3,
   "metadata": {},
   "outputs": [
    {
     "name": "stdout",
     "output_type": "stream",
     "text": [
      "/root/repositories/motion-wav2lip-codeformer/Wav2Lip\n",
      "FPS:  29.916666666666668 Frames:  198\n"
     ]
    },
    {
     "name": "stderr",
     "output_type": "stream",
     "text": [
      "100%|██████████| 198/198 [00:00<00:00, 1154.90it/s]\n"
     ]
    }
   ],
   "source": [
    "%cd $wav2lip_dir\n",
    "\n",
    "import cv2\n",
    "from tqdm import tqdm\n",
    "from os import path\n",
    "import os\n",
    "\n",
    "vidcap = cv2.VideoCapture(str(wav2lip_result_voice_path))\n",
    "numberOfFrames = int(vidcap.get(cv2.CAP_PROP_FRAME_COUNT))\n",
    "fps = vidcap.get(cv2.CAP_PROP_FPS)\n",
    "print(\"FPS: \", fps, \"Frames: \", numberOfFrames)\n",
    "\n",
    "for frameNumber in tqdm(range(numberOfFrames)):\n",
    "    _,image = vidcap.read()\n",
    "    frame_output_path = str(images_dir / str(str(frameNumber).zfill(4)+'.jpg'))\n",
    "    cv2.imwrite(frame_output_path, image)"
   ]
  },
  {
   "cell_type": "code",
   "execution_count": 2,
   "metadata": {},
   "outputs": [
    {
     "name": "stdout",
     "output_type": "stream",
     "text": [
      "/root/repositories/motion-wav2lip-codeformer/CodeFormer\n"
     ]
    }
   ],
   "source": [
    "%cd $codeformer_dir\n",
    "\n",
    "import cv2\n",
    "def imread(img_path):\n",
    "  img = cv2.imread(img_path)\n",
    "  img = cv2.cvtColor(img, cv2.COLOR_BGR2RGB)\n",
    "  return img"
   ]
  },
  {
   "cell_type": "code",
   "execution_count": 5,
   "metadata": {},
   "outputs": [
    {
     "name": "stdout",
     "output_type": "stream",
     "text": [
      "/root/repositories/motion-wav2lip-codeformer/CodeFormer\n",
      "Face detection model: retinaface_resnet50\n",
      "Background upsampling: True, Face upsampling: False\n",
      "[1/198] Processing: 0000.jpg\n",
      "\tdetect 1 faces\n",
      "[2/198] Processing: 0001.jpg\n",
      "\tdetect 1 faces\n",
      "[3/198] Processing: 0002.jpg\n",
      "\tdetect 1 faces\n",
      "[4/198] Processing: 0003.jpg\n",
      "\tdetect 1 faces\n",
      "[5/198] Processing: 0004.jpg\n",
      "\tdetect 1 faces\n",
      "[6/198] Processing: 0005.jpg\n",
      "\tdetect 1 faces\n",
      "[7/198] Processing: 0006.jpg\n",
      "\tdetect 1 faces\n",
      "[8/198] Processing: 0007.jpg\n",
      "\tdetect 1 faces\n",
      "[9/198] Processing: 0008.jpg\n",
      "\tdetect 1 faces\n",
      "[10/198] Processing: 0009.jpg\n",
      "\tdetect 1 faces\n",
      "[11/198] Processing: 0010.jpg\n",
      "\tdetect 1 faces\n",
      "[12/198] Processing: 0011.jpg\n",
      "\tdetect 1 faces\n",
      "[13/198] Processing: 0012.jpg\n",
      "\tdetect 1 faces\n",
      "[14/198] Processing: 0013.jpg\n",
      "\tdetect 1 faces\n",
      "[15/198] Processing: 0014.jpg\n",
      "\tdetect 1 faces\n",
      "[16/198] Processing: 0015.jpg\n",
      "\tdetect 1 faces\n",
      "[17/198] Processing: 0016.jpg\n",
      "\tdetect 1 faces\n",
      "[18/198] Processing: 0017.jpg\n",
      "\tdetect 1 faces\n",
      "[19/198] Processing: 0018.jpg\n",
      "\tdetect 1 faces\n",
      "[20/198] Processing: 0019.jpg\n",
      "\tdetect 1 faces\n",
      "[21/198] Processing: 0020.jpg\n",
      "\tdetect 1 faces\n",
      "[22/198] Processing: 0021.jpg\n",
      "\tdetect 1 faces\n",
      "[23/198] Processing: 0022.jpg\n",
      "\tdetect 1 faces\n",
      "[24/198] Processing: 0023.jpg\n",
      "\tdetect 1 faces\n",
      "[25/198] Processing: 0024.jpg\n",
      "\tdetect 1 faces\n",
      "[26/198] Processing: 0025.jpg\n",
      "\tdetect 1 faces\n",
      "[27/198] Processing: 0026.jpg\n",
      "\tdetect 1 faces\n",
      "[28/198] Processing: 0027.jpg\n",
      "\tdetect 1 faces\n",
      "[29/198] Processing: 0028.jpg\n",
      "\tdetect 1 faces\n",
      "[30/198] Processing: 0029.jpg\n",
      "\tdetect 1 faces\n",
      "[31/198] Processing: 0030.jpg\n",
      "\tdetect 1 faces\n",
      "[32/198] Processing: 0031.jpg\n",
      "\tdetect 1 faces\n",
      "[33/198] Processing: 0032.jpg\n",
      "\tdetect 1 faces\n",
      "[34/198] Processing: 0033.jpg\n",
      "\tdetect 1 faces\n",
      "[35/198] Processing: 0034.jpg\n",
      "\tdetect 1 faces\n",
      "[36/198] Processing: 0035.jpg\n",
      "\tdetect 1 faces\n",
      "[37/198] Processing: 0036.jpg\n",
      "\tdetect 1 faces\n",
      "[38/198] Processing: 0037.jpg\n",
      "\tdetect 1 faces\n",
      "[39/198] Processing: 0038.jpg\n",
      "\tdetect 1 faces\n",
      "[40/198] Processing: 0039.jpg\n",
      "\tdetect 1 faces\n",
      "[41/198] Processing: 0040.jpg\n",
      "\tdetect 1 faces\n",
      "[42/198] Processing: 0041.jpg\n",
      "\tdetect 1 faces\n",
      "[43/198] Processing: 0042.jpg\n",
      "\tdetect 1 faces\n",
      "[44/198] Processing: 0043.jpg\n",
      "\tdetect 1 faces\n",
      "[45/198] Processing: 0044.jpg\n",
      "\tdetect 1 faces\n",
      "[46/198] Processing: 0045.jpg\n",
      "\tdetect 1 faces\n",
      "[47/198] Processing: 0046.jpg\n",
      "\tdetect 1 faces\n",
      "[48/198] Processing: 0047.jpg\n",
      "\tdetect 1 faces\n",
      "[49/198] Processing: 0048.jpg\n",
      "\tdetect 1 faces\n",
      "[50/198] Processing: 0049.jpg\n",
      "\tdetect 1 faces\n",
      "[51/198] Processing: 0050.jpg\n",
      "\tdetect 1 faces\n",
      "[52/198] Processing: 0051.jpg\n",
      "\tdetect 1 faces\n",
      "[53/198] Processing: 0052.jpg\n",
      "\tdetect 1 faces\n",
      "[54/198] Processing: 0053.jpg\n",
      "\tdetect 1 faces\n",
      "[55/198] Processing: 0054.jpg\n",
      "\tdetect 1 faces\n",
      "[56/198] Processing: 0055.jpg\n",
      "\tdetect 1 faces\n",
      "[57/198] Processing: 0056.jpg\n",
      "\tdetect 1 faces\n",
      "[58/198] Processing: 0057.jpg\n",
      "\tdetect 1 faces\n",
      "[59/198] Processing: 0058.jpg\n",
      "\tdetect 1 faces\n",
      "[60/198] Processing: 0059.jpg\n",
      "\tdetect 1 faces\n",
      "[61/198] Processing: 0060.jpg\n",
      "\tdetect 1 faces\n",
      "[62/198] Processing: 0061.jpg\n",
      "\tdetect 1 faces\n",
      "[63/198] Processing: 0062.jpg\n",
      "\tdetect 1 faces\n",
      "[64/198] Processing: 0063.jpg\n",
      "\tdetect 1 faces\n",
      "[65/198] Processing: 0064.jpg\n",
      "\tdetect 1 faces\n",
      "[66/198] Processing: 0065.jpg\n",
      "\tdetect 1 faces\n",
      "[67/198] Processing: 0066.jpg\n",
      "\tdetect 1 faces\n",
      "[68/198] Processing: 0067.jpg\n",
      "\tdetect 1 faces\n",
      "[69/198] Processing: 0068.jpg\n",
      "\tdetect 1 faces\n",
      "[70/198] Processing: 0069.jpg\n",
      "\tdetect 1 faces\n",
      "[71/198] Processing: 0070.jpg\n",
      "\tdetect 1 faces\n",
      "[72/198] Processing: 0071.jpg\n",
      "\tdetect 1 faces\n",
      "[73/198] Processing: 0072.jpg\n",
      "\tdetect 1 faces\n",
      "[74/198] Processing: 0073.jpg\n",
      "\tdetect 1 faces\n",
      "[75/198] Processing: 0074.jpg\n",
      "\tdetect 1 faces\n",
      "[76/198] Processing: 0075.jpg\n",
      "\tdetect 1 faces\n",
      "[77/198] Processing: 0076.jpg\n",
      "\tdetect 1 faces\n",
      "[78/198] Processing: 0077.jpg\n",
      "\tdetect 1 faces\n",
      "[79/198] Processing: 0078.jpg\n",
      "\tdetect 1 faces\n",
      "[80/198] Processing: 0079.jpg\n",
      "\tdetect 1 faces\n",
      "[81/198] Processing: 0080.jpg\n",
      "\tdetect 1 faces\n",
      "[82/198] Processing: 0081.jpg\n",
      "\tdetect 1 faces\n",
      "[83/198] Processing: 0082.jpg\n",
      "\tdetect 1 faces\n",
      "[84/198] Processing: 0083.jpg\n",
      "\tdetect 1 faces\n",
      "[85/198] Processing: 0084.jpg\n",
      "\tdetect 1 faces\n",
      "[86/198] Processing: 0085.jpg\n",
      "\tdetect 1 faces\n",
      "[87/198] Processing: 0086.jpg\n",
      "\tdetect 1 faces\n",
      "[88/198] Processing: 0087.jpg\n",
      "\tdetect 1 faces\n",
      "[89/198] Processing: 0088.jpg\n",
      "\tdetect 1 faces\n",
      "[90/198] Processing: 0089.jpg\n",
      "\tdetect 1 faces\n",
      "[91/198] Processing: 0090.jpg\n",
      "\tdetect 1 faces\n",
      "[92/198] Processing: 0091.jpg\n",
      "\tdetect 1 faces\n",
      "[93/198] Processing: 0092.jpg\n",
      "\tdetect 1 faces\n",
      "[94/198] Processing: 0093.jpg\n",
      "\tdetect 1 faces\n",
      "[95/198] Processing: 0094.jpg\n",
      "\tdetect 1 faces\n",
      "[96/198] Processing: 0095.jpg\n",
      "\tdetect 1 faces\n",
      "[97/198] Processing: 0096.jpg\n",
      "\tdetect 1 faces\n",
      "[98/198] Processing: 0097.jpg\n",
      "\tdetect 1 faces\n",
      "[99/198] Processing: 0098.jpg\n",
      "\tdetect 1 faces\n",
      "[100/198] Processing: 0099.jpg\n",
      "\tdetect 1 faces\n",
      "[101/198] Processing: 0100.jpg\n",
      "\tdetect 1 faces\n",
      "[102/198] Processing: 0101.jpg\n",
      "\tdetect 1 faces\n",
      "[103/198] Processing: 0102.jpg\n",
      "\tdetect 1 faces\n",
      "[104/198] Processing: 0103.jpg\n",
      "\tdetect 1 faces\n",
      "[105/198] Processing: 0104.jpg\n",
      "\tdetect 1 faces\n",
      "[106/198] Processing: 0105.jpg\n",
      "\tdetect 1 faces\n",
      "[107/198] Processing: 0106.jpg\n",
      "\tdetect 1 faces\n",
      "[108/198] Processing: 0107.jpg\n",
      "\tdetect 1 faces\n",
      "[109/198] Processing: 0108.jpg\n",
      "\tdetect 1 faces\n",
      "[110/198] Processing: 0109.jpg\n",
      "\tdetect 1 faces\n",
      "[111/198] Processing: 0110.jpg\n",
      "\tdetect 1 faces\n",
      "[112/198] Processing: 0111.jpg\n",
      "\tdetect 1 faces\n",
      "[113/198] Processing: 0112.jpg\n",
      "\tdetect 1 faces\n",
      "[114/198] Processing: 0113.jpg\n",
      "\tdetect 1 faces\n",
      "[115/198] Processing: 0114.jpg\n",
      "\tdetect 1 faces\n",
      "[116/198] Processing: 0115.jpg\n",
      "\tdetect 1 faces\n",
      "[117/198] Processing: 0116.jpg\n",
      "\tdetect 1 faces\n",
      "[118/198] Processing: 0117.jpg\n",
      "\tdetect 1 faces\n",
      "[119/198] Processing: 0118.jpg\n",
      "\tdetect 1 faces\n",
      "[120/198] Processing: 0119.jpg\n",
      "\tdetect 1 faces\n",
      "[121/198] Processing: 0120.jpg\n",
      "\tdetect 1 faces\n",
      "[122/198] Processing: 0121.jpg\n",
      "\tdetect 1 faces\n",
      "[123/198] Processing: 0122.jpg\n",
      "\tdetect 1 faces\n",
      "[124/198] Processing: 0123.jpg\n",
      "\tdetect 1 faces\n",
      "[125/198] Processing: 0124.jpg\n",
      "\tdetect 1 faces\n",
      "[126/198] Processing: 0125.jpg\n",
      "\tdetect 1 faces\n",
      "[127/198] Processing: 0126.jpg\n",
      "\tdetect 1 faces\n",
      "[128/198] Processing: 0127.jpg\n",
      "\tdetect 1 faces\n",
      "[129/198] Processing: 0128.jpg\n",
      "\tdetect 1 faces\n",
      "[130/198] Processing: 0129.jpg\n",
      "\tdetect 1 faces\n",
      "[131/198] Processing: 0130.jpg\n",
      "\tdetect 1 faces\n",
      "[132/198] Processing: 0131.jpg\n",
      "\tdetect 1 faces\n",
      "[133/198] Processing: 0132.jpg\n",
      "\tdetect 1 faces\n",
      "[134/198] Processing: 0133.jpg\n",
      "\tdetect 1 faces\n",
      "[135/198] Processing: 0134.jpg\n",
      "\tdetect 1 faces\n",
      "[136/198] Processing: 0135.jpg\n",
      "\tdetect 1 faces\n",
      "[137/198] Processing: 0136.jpg\n",
      "\tdetect 1 faces\n",
      "[138/198] Processing: 0137.jpg\n",
      "\tdetect 1 faces\n",
      "[139/198] Processing: 0138.jpg\n",
      "\tdetect 1 faces\n",
      "[140/198] Processing: 0139.jpg\n",
      "\tdetect 1 faces\n",
      "[141/198] Processing: 0140.jpg\n",
      "\tdetect 1 faces\n",
      "[142/198] Processing: 0141.jpg\n",
      "\tdetect 1 faces\n",
      "[143/198] Processing: 0142.jpg\n",
      "\tdetect 1 faces\n",
      "[144/198] Processing: 0143.jpg\n",
      "\tdetect 1 faces\n",
      "[145/198] Processing: 0144.jpg\n",
      "\tdetect 1 faces\n",
      "[146/198] Processing: 0145.jpg\n",
      "\tdetect 1 faces\n",
      "[147/198] Processing: 0146.jpg\n",
      "\tdetect 1 faces\n",
      "[148/198] Processing: 0147.jpg\n",
      "\tdetect 1 faces\n",
      "[149/198] Processing: 0148.jpg\n",
      "\tdetect 1 faces\n",
      "[150/198] Processing: 0149.jpg\n",
      "\tdetect 1 faces\n",
      "[151/198] Processing: 0150.jpg\n",
      "\tdetect 1 faces\n",
      "[152/198] Processing: 0151.jpg\n",
      "\tdetect 1 faces\n",
      "[153/198] Processing: 0152.jpg\n",
      "\tdetect 1 faces\n",
      "[154/198] Processing: 0153.jpg\n",
      "\tdetect 1 faces\n",
      "[155/198] Processing: 0154.jpg\n",
      "\tdetect 1 faces\n",
      "[156/198] Processing: 0155.jpg\n",
      "\tdetect 1 faces\n",
      "[157/198] Processing: 0156.jpg\n",
      "\tdetect 1 faces\n",
      "[158/198] Processing: 0157.jpg\n",
      "\tdetect 1 faces\n",
      "[159/198] Processing: 0158.jpg\n",
      "\tdetect 1 faces\n",
      "[160/198] Processing: 0159.jpg\n",
      "\tdetect 1 faces\n",
      "[161/198] Processing: 0160.jpg\n",
      "\tdetect 1 faces\n",
      "[162/198] Processing: 0161.jpg\n",
      "\tdetect 1 faces\n",
      "[163/198] Processing: 0162.jpg\n",
      "\tdetect 1 faces\n",
      "[164/198] Processing: 0163.jpg\n",
      "\tdetect 1 faces\n",
      "[165/198] Processing: 0164.jpg\n",
      "\tdetect 1 faces\n",
      "[166/198] Processing: 0165.jpg\n",
      "\tdetect 1 faces\n",
      "[167/198] Processing: 0166.jpg\n",
      "\tdetect 1 faces\n",
      "[168/198] Processing: 0167.jpg\n",
      "\tdetect 1 faces\n",
      "[169/198] Processing: 0168.jpg\n",
      "\tdetect 1 faces\n",
      "[170/198] Processing: 0169.jpg\n",
      "\tdetect 1 faces\n",
      "[171/198] Processing: 0170.jpg\n",
      "\tdetect 1 faces\n",
      "[172/198] Processing: 0171.jpg\n",
      "\tdetect 1 faces\n",
      "[173/198] Processing: 0172.jpg\n",
      "\tdetect 1 faces\n",
      "[174/198] Processing: 0173.jpg\n",
      "\tdetect 1 faces\n",
      "[175/198] Processing: 0174.jpg\n",
      "\tdetect 1 faces\n",
      "[176/198] Processing: 0175.jpg\n",
      "\tdetect 1 faces\n",
      "[177/198] Processing: 0176.jpg\n",
      "\tdetect 1 faces\n",
      "[178/198] Processing: 0177.jpg\n",
      "\tdetect 1 faces\n",
      "[179/198] Processing: 0178.jpg\n",
      "\tdetect 1 faces\n",
      "[180/198] Processing: 0179.jpg\n",
      "\tdetect 1 faces\n",
      "[181/198] Processing: 0180.jpg\n",
      "\tdetect 1 faces\n",
      "[182/198] Processing: 0181.jpg\n",
      "\tdetect 1 faces\n",
      "[183/198] Processing: 0182.jpg\n",
      "\tdetect 1 faces\n",
      "[184/198] Processing: 0183.jpg\n",
      "\tdetect 1 faces\n",
      "[185/198] Processing: 0184.jpg\n",
      "\tdetect 1 faces\n",
      "[186/198] Processing: 0185.jpg\n",
      "\tdetect 1 faces\n",
      "[187/198] Processing: 0186.jpg\n",
      "\tdetect 1 faces\n",
      "[188/198] Processing: 0187.jpg\n",
      "\tdetect 1 faces\n",
      "[189/198] Processing: 0188.jpg\n",
      "\tdetect 1 faces\n",
      "[190/198] Processing: 0189.jpg\n",
      "\tdetect 1 faces\n",
      "[191/198] Processing: 0190.jpg\n",
      "\tdetect 1 faces\n",
      "[192/198] Processing: 0191.jpg\n",
      "\tdetect 1 faces\n",
      "[193/198] Processing: 0192.jpg\n",
      "\tdetect 1 faces\n",
      "[194/198] Processing: 0193.jpg\n",
      "\tdetect 1 faces\n",
      "[195/198] Processing: 0194.jpg\n",
      "\tdetect 1 faces\n",
      "[196/198] Processing: 0195.jpg\n",
      "\tdetect 1 faces\n",
      "[197/198] Processing: 0196.jpg\n",
      "\tdetect 1 faces\n",
      "[198/198] Processing: 0197.jpg\n",
      "\tdetect 1 faces\n",
      "\n",
      "All results are saved in results/images_0.6\n"
     ]
    }
   ],
   "source": [
    "%cd $codeformer_dir\n",
    "\n",
    "!python inference_codeformer.py -w $CODEFORMER_FIDELITY --input_path /root/repositories/Wav2Lip-CodeFormer/images --bg_upsampler realesrgan"
   ]
  },
  {
   "cell_type": "code",
   "execution_count": 21,
   "metadata": {},
   "outputs": [],
   "source": [
    "!rm $output_batch_avi_path\n",
    "!rm $output_final_mp4_path"
   ]
  },
  {
   "cell_type": "code",
   "execution_count": 20,
   "metadata": {},
   "outputs": [
    {
     "name": "stderr",
     "output_type": "stream",
     "text": [
      "  0%|          | 0/1 [00:00<?, ?it/s]"
     ]
    },
    {
     "name": "stdout",
     "output_type": "stream",
     "text": [
      "processing  0 600\n"
     ]
    },
    {
     "name": "stderr",
     "output_type": "stream",
     "text": [
      "100%|██████████| 198/198 [00:03<00:00, 62.08it/s]\n",
      "100%|██████████| 1/1 [00:03<00:00,  3.89s/it]\n",
      "ffmpeg version 4.4.2-0ubuntu0.22.04.1 Copyright (c) 2000-2021 the FFmpeg developers\n",
      "  built with gcc 11 (Ubuntu 11.2.0-19ubuntu1)\n",
      "  configuration: --prefix=/usr --extra-version=0ubuntu0.22.04.1 --toolchain=hardened --libdir=/usr/lib/x86_64-linux-gnu --incdir=/usr/include/x86_64-linux-gnu --arch=amd64 --enable-gpl --disable-stripping --enable-gnutls --enable-ladspa --enable-libaom --enable-libass --enable-libbluray --enable-libbs2b --enable-libcaca --enable-libcdio --enable-libcodec2 --enable-libdav1d --enable-libflite --enable-libfontconfig --enable-libfreetype --enable-libfribidi --enable-libgme --enable-libgsm --enable-libjack --enable-libmp3lame --enable-libmysofa --enable-libopenjpeg --enable-libopenmpt --enable-libopus --enable-libpulse --enable-librabbitmq --enable-librubberband --enable-libshine --enable-libsnappy --enable-libsoxr --enable-libspeex --enable-libsrt --enable-libssh --enable-libtheora --enable-libtwolame --enable-libvidstab --enable-libvorbis --enable-libvpx --enable-libwebp --enable-libx265 --enable-libxml2 --enable-libxvid --enable-libzimg --enable-libzmq --enable-libzvbi --enable-lv2 --enable-omx --enable-openal --enable-opencl --enable-opengl --enable-sdl2 --enable-pocketsphinx --enable-librsvg --enable-libmfx --enable-libdc1394 --enable-libdrm --enable-libiec61883 --enable-chromaprint --enable-frei0r --enable-libx264 --enable-shared\n",
      "  libavutil      56. 70.100 / 56. 70.100\n",
      "  libavcodec     58.134.100 / 58.134.100\n",
      "  libavformat    58. 76.100 / 58. 76.100\n",
      "  libavdevice    58. 13.100 / 58. 13.100\n",
      "  libavfilter     7.110.100 /  7.110.100\n",
      "  libswscale      5.  9.100 /  5.  9.100\n",
      "  libswresample   3.  9.100 /  3.  9.100\n",
      "  libpostproc    55.  9.100 / 55.  9.100\n",
      "Input #0, avi, from '/root/repositories/motion-wav2lip-codeformer/output/batch_0000.avi':\n",
      "  Metadata:\n",
      "    software        : Lavf59.27.100\n",
      "  Duration: 00:00:06.60, start: 0.000000, bitrate: 4073 kb/s\n",
      "  Stream #0:0: Video: mpeg4 (Simple Profile) (DIVX / 0x58564944), yuv420p, 1024x1024 [SAR 1:1 DAR 1:1], 4080 kb/s, 30 fps, 30 tbr, 30 tbn, 30 tbc\n",
      "Guessed Channel Layout for Input Stream #1.0 : mono\n",
      "Input #1, wav, from '/root/repositories/motion-wav2lip-codeformer/input/audio.wav':\n",
      "  Duration: 00:00:06.73, bitrate: 768 kb/s\n",
      "  Stream #1:0: Audio: pcm_s16le ([1][0][0][0] / 0x0001), 48000 Hz, mono, s16, 768 kb/s\n",
      "Stream mapping:\n",
      "  Stream #0:0 -> #0:0 (mpeg4 (native) -> h264 (libx264))\n",
      "  Stream #1:0 -> #0:1 (pcm_s16le (native) -> aac (native))\n",
      "Press [q] to stop, [?] for help\n",
      "[libx264 @ 0x556305a14900] using SAR=1/1\n",
      "[libx264 @ 0x556305a14900] using cpu capabilities: MMX2 SSE2Fast SSSE3 SSE4.2 AVX FMA3 BMI2 AVX2\n",
      "[libx264 @ 0x556305a14900] profile High, level 3.2, 4:2:0, 8-bit\n",
      "[libx264 @ 0x556305a14900] 264 - core 163 r3060 5db6aa6 - H.264/MPEG-4 AVC codec - Copyleft 2003-2021 - http://www.videolan.org/x264.html - options: cabac=1 ref=3 deblock=1:0:0 analyse=0x3:0x113 me=hex subme=7 psy=1 psy_rd=1.00:0.00 mixed_ref=1 me_range=16 chroma_me=1 trellis=1 8x8dct=1 cqm=0 deadzone=21,11 fast_pskip=1 chroma_qp_offset=-2 threads=24 lookahead_threads=4 sliced_threads=0 nr=0 decimate=1 interlaced=0 bluray_compat=0 constrained_intra=0 bframes=3 b_pyramid=2 b_adapt=1 b_bias=0 direct=1 weightb=1 open_gop=0 weightp=2 keyint=250 keyint_min=25 scenecut=40 intra_refresh=0 rc_lookahead=40 rc=crf mbtree=1 crf=23.0 qcomp=0.60 qpmin=0 qpmax=69 qpstep=4 ip_ratio=1.40 aq=1:1.00\n",
      "Output #0, mp4, to '/root/repositories/motion-wav2lip-codeformer/output/final.mp4':\n",
      "  Metadata:\n",
      "    software        : Lavf59.27.100\n",
      "    encoder         : Lavf58.76.100\n",
      "  Stream #0:0: Video: h264 (avc1 / 0x31637661), yuv420p(progressive), 1024x1024 [SAR 1:1 DAR 1:1], q=2-31, 30 fps, 15360 tbn\n",
      "    Metadata:\n",
      "      encoder         : Lavc58.134.100 libx264\n",
      "    Side data:\n",
      "      cpb: bitrate max/min/avg: 0/0/0 buffer size: 0 vbv_delay: N/A\n",
      "  Stream #0:1: Audio: aac (LC) (mp4a / 0x6134706D), 48000 Hz, mono, fltp, 69 kb/s\n",
      "    Metadata:\n",
      "      encoder         : Lavc58.134.100 aac\n",
      "frame=  198 fps=0.0 q=-1.0 Lsize=    1789kB time=00:00:06.72 bitrate=2180.5kbits/s speed=7.05x    \n",
      "video:1729kB audio:52kB subtitle:0kB other streams:0kB global headers:0kB muxing overhead: 0.446074%\n",
      "[libx264 @ 0x556305a14900] frame I:2     Avg QP:19.87  size: 22073\n",
      "[libx264 @ 0x556305a14900] frame P:121   Avg QP:22.47  size:  9908\n",
      "[libx264 @ 0x556305a14900] frame B:75    Avg QP:23.98  size:  7021\n",
      "[libx264 @ 0x556305a14900] consecutive B-frames: 47.5%  4.0%  6.1% 42.4%\n",
      "[libx264 @ 0x556305a14900] mb I  I16..4: 22.4% 77.5%  0.1%\n",
      "[libx264 @ 0x556305a14900] mb P  I16..4:  2.2% 11.8%  0.0%  P16..4: 37.1%  5.8%  2.5%  0.0%  0.0%    skip:40.6%\n",
      "[libx264 @ 0x556305a14900] mb B  I16..4:  0.7%  5.0%  0.0%  B16..8: 37.8%  4.2%  0.4%  direct: 2.3%  skip:49.6%  L0:60.5% L1:37.6% BI: 1.9%\n",
      "[libx264 @ 0x556305a14900] 8x8 transform intra:84.3% inter:92.0%\n",
      "[libx264 @ 0x556305a14900] coded y,uvDC,uvAC intra: 43.3% 32.4% 0.7% inter: 14.2% 8.0% 0.0%\n",
      "[libx264 @ 0x556305a14900] i16 v,h,dc,p: 50% 17% 19% 14%\n",
      "[libx264 @ 0x556305a14900] i8 v,h,dc,ddl,ddr,vr,hd,vl,hu: 26% 16% 47%  2%  2%  2%  2%  2%  2%\n",
      "[libx264 @ 0x556305a14900] i4 v,h,dc,ddl,ddr,vr,hd,vl,hu: 29% 25% 14%  4%  6%  6%  6%  5%  4%\n",
      "[libx264 @ 0x556305a14900] i8c dc,h,v,p: 58% 18% 22%  1%\n",
      "[libx264 @ 0x556305a14900] Weighted P-Frames: Y:0.0% UV:0.0%\n",
      "[libx264 @ 0x556305a14900] ref P L0: 68.7% 11.5% 13.8%  5.9%\n",
      "[libx264 @ 0x556305a14900] ref B L0: 87.0%  9.6%  3.4%\n",
      "[libx264 @ 0x556305a14900] ref B L1: 95.4%  4.6%\n",
      "[libx264 @ 0x556305a14900] kb/s:2145.06\n",
      "[aac @ 0x556305a16640] Qavg: 7685.399\n"
     ]
    },
    {
     "data": {
      "text/plain": [
       "(None, None)"
      ]
     },
     "execution_count": 20,
     "metadata": {},
     "output_type": "execute_result"
    }
   ],
   "source": [
    "import os\n",
    "import ffmpeg\n",
    "\n",
    "img_fidelity_dir = \"images_\"+str(CODEFORMER_FIDELITY)\n",
    "restored_frames_dir = codeformer_results_dir / str(img_fidelity_dir) / 'final_results'\n",
    "\n",
    "dir_list = os.listdir(restored_frames_dir)\n",
    "dir_list.sort()\n",
    "\n",
    "import cv2\n",
    "import numpy as np\n",
    "\n",
    "batch = 0\n",
    "batchSize = 600\n",
    "from tqdm import tqdm\n",
    "for i in tqdm(range(0, len(dir_list), batchSize)):\n",
    "  img_array = []\n",
    "  start, end = i, i+batchSize\n",
    "  print(\"processing \", start, end)\n",
    "  for filename in  tqdm(dir_list[start:end]):\n",
    "      filename = str(restored_frames_dir / str(filename))\n",
    "      img = cv2.imread(filename)\n",
    "      if img is None:\n",
    "        continue\n",
    "      height, width, layers = img.shape\n",
    "      size = (width,height)\n",
    "      img_array.append(img)\n",
    "\n",
    "\n",
    "  out = cv2.VideoWriter(str(output_dir)+'/batch_'+str(batch).zfill(4)+'.avi',cv2.VideoWriter_fourcc(*'DIVX'), 30, size)\n",
    "  batch = batch + 1\n",
    " \n",
    "  for i in range(len(img_array)):\n",
    "    out.write(img_array[i])\n",
    "  out.release()\n",
    "\n",
    "audio = ffmpeg.input(str(input_audio_path))\n",
    "video = ffmpeg.input(str(output_batch_avi_path))\n",
    "out = ffmpeg.output(video, audio, str(output_final_mp4_path))\n",
    "out.run()  "
   ]
  },
  {
   "cell_type": "code",
   "execution_count": null,
   "metadata": {},
   "outputs": [],
   "source": []
  }
 ],
 "metadata": {
  "kernelspec": {
   "display_name": ".venv",
   "language": "python",
   "name": "python3"
  },
  "language_info": {
   "codemirror_mode": {
    "name": "ipython",
    "version": 3
   },
   "file_extension": ".py",
   "mimetype": "text/x-python",
   "name": "python",
   "nbconvert_exporter": "python",
   "pygments_lexer": "ipython3",
   "version": "3.11.6"
  }
 },
 "nbformat": 4,
 "nbformat_minor": 2
}
